<?xml version="1.0" encoding="UTF-8" standalone="no"?>
<svg width="1200px" height="1000px" viewBox="0 0 1200 1000" version="1.1" xmlns="http://www.w3.org/2000/svg" xmlns:xlink="http://www.w3.org/1999/xlink" xmlns:sketch="http://www.bohemiancoding.com/sketch/ns">
    <title>graphic_responsive</title>
    <description>Created with Sketch (http://www.bohemiancoding.com/sketch)</description>
    <defs>
        <path d="M8.00887174,0 C3.58569401,0 0,3.58020589 0,7.99015164 L0,392.009848 C0,396.422687 3.58280463,400 8.00887174,400 L611.991128,400 C616.414306,400 620,396.419794 620,392.009848 L620,7.99015164 C620,3.57731274 616.417195,0 611.991128,0 L8.00887174,0 Z M8.00887174,0" id="path-1" stroke="none" fill-rule="evenodd"></path>
        <mask id="mask-2" fill="white">
            <use xlink:href="#path-1"></use>
        </mask>
        <path d="M3.00319787,0 C1.34457748,0 0,1.33801252 0,2.99280137 L0,97.0071986 C0,98.6600772 1.33427771,100 3.00319787,100 L996.996802,100 C998.655423,100 1000,98.6619875 1000,97.0071986 L1000,2.99280137 C1000,1.33992281 998.665722,0 996.996802,0 L3.00319787,0 Z M3.00319787,0" id="path-3" stroke="none" fill-rule="evenodd"></path>
        <mask id="mask-4" fill="white">
            <use xlink:href="#path-3"></use>
        </mask>
    </defs>
    <g id="Responsive Design" stroke="none" stroke-width="1" fill="none" fill-rule="evenodd">
        <path d="M1,1 L1,1001 L1201,1001 L1201,1 L1,1 Z M1,1" id="BG" fill="#FFFFFF"></path>
        <g id="Shadows" transform="translate(81.000000, 664.000000)" fill="#EBEBEB">
            <path d="M668,14 C742.558445,14 803,10.8659934 803,7 C803,3.13400656 742.558445,0 668,0 C593.441555,0 533,3.13400656 533,7 C533,10.8659934 593.441555,14 668,14 Z M668,14" id="Shadow"></path>
            <path d="M291.5,14 C397.262535,14 483,10.8659934 483,7 C483,3.13400656 397.262535,0 291.5,0 C185.737465,0 100,3.13400656 100,7 C100,10.8659934 185.737465,14 291.5,14 Z M291.5,14" id="Shadow"></path>
            <path d="M109,14 C169.199041,14 218,10.8659934 218,7 C218,3.13400656 169.199041,0 109,0 C48.8009593,0 0,3.13400656 0,7 C0,10.8659934 48.8009593,14 109,14 Z M109,14" id="Shadow"></path>
        </g>
        <g id="Screen" transform="translate(400.000000, 100.000000)">
            <path d="M280,460 L280,570 L420,570 L420,460 L280,460 Z M280,460" id="Rectangle 11" fill="#C0C0C0"></path>
            <path d="M262.992639,560 C261.33985,560 260,561.348644 260,563.00033 L260,566.99967 C260,568.656707 261.345375,570 262.992639,570 L437.007361,570 C438.66015,570 440,568.651356 440,566.99967 L440,563.00033 C440,561.343293 438.654625,560 437.007361,560 L262.992639,560 Z M262.992639,560" id="Rectangle 11 copy" fill="#D4D4D4"></path>
            <path d="M280,460 L280,560 L360,560 L420,460 L280,460 Z M280,460" id="Rectangle 11 copy" fill="#ACACAC"></path>
            <path d="M23.9942356,4 C10.7425852,4 0,14.7472995 0,28.0001747 L0,479.999825 C0,493.254756 10.7500428,504 23.9942356,504 L676.005764,504 C689.257415,504 700,493.252701 700,479.999825 L700,28.0001747 C700,14.7452442 689.249957,4 676.005764,4 L23.9942356,4 Z M23.9942356,4" id="Rectangle 2 copy 2" fill="#ACACAC"></path>
            <path d="M23.9942356,0 C10.7425852,0 0,10.7472995 0,24.0001747 L0,475.999825 C0,489.254756 10.7500428,500 23.9942356,500 L676.005764,500 C689.257415,500 700,489.252701 700,475.999825 L700,24.0001747 C700,10.7452442 689.249957,0 676.005764,0 L23.9942356,0 Z M23.9942356,0" id="Rectangle 2 copy" fill="#D4D4D4"></path>
            <g id="Group" transform="translate(40.000000, 40.000000)">
                <use id="Rectangle 3 copy" xlink:href="#path-1" fill="#FFFFFF"></use>
                <path d="M-2.00750226,-20 C-6.42163688,-20 -10,-16.425978 -10,-11.9992391 L-10,411.999239 C-10,416.417937 -6.42600485,420 -2.00750226,420 L621.007502,420 C625.421637,420 629,416.425978 629,411.999239 L629,-11.9992391 C629,-16.4179373 625.426005,-20 621.007502,-20 L-2.00750226,-20 Z M-2.00750226,-20" id="Rectangle 15" fill="#F5F5F5" mask="url(#mask-2)"></path>
                <path d="M122.990087,30 C121.338708,30 120,31.3423094 120,33.0065012 L120,66.9934988 C120,68.6539436 121.338345,70 122.990087,70 L197.009913,70 C198.661292,70 200,68.6576906 200,66.9934988 L200,33.0065012 C200,31.3460564 198.661655,30 197.009913,30 L122.990087,30 Z M122.990087,30" id="Rectangle 16" fill="#34E0C2" mask="url(#mask-2)"></path>
                <path d="M322.992639,40 C321.33985,40 320,41.343312 320,42.9942021 L320,57.0057979 C320,58.6594501 321.345375,60 322.992639,60 L497.007361,60 C498.66015,60 500,58.656688 500,57.0057979 L500,42.9942021 C500,41.3405499 498.654625,40 497.007361,40 L322.992639,40 Z M322.992639,40" id="Rectangle 16 copy" fill="#9B9B9B" mask="url(#mask-2)"></path>
                <path d="M122.992639,110 C121.33985,110 120,111.343312 120,112.994202 L120,127.005798 C120,128.65945 121.345375,130 122.992639,130 L297.007361,130 C298.66015,130 300,128.656688 300,127.005798 L300,112.994202 C300,111.34055 298.654625,110 297.007361,110 L122.992639,110 Z M122.992639,110" id="Rectangle 16 copy 2" fill="#9B9B9B" mask="url(#mask-2)"></path>
                <path d="M343.000609,110 C341.343419,110 340,111.351121 340,112.999283 L340,217.000717 C340,218.657175 341.335151,220 343.000609,220 L496.999391,220 C498.656581,220 500,218.648879 500,217.000717 L500,112.999283 C500,111.342825 498.664849,110 496.999391,110 L343.000609,110 Z M343.000609,110" id="Rectangle 16 copy 3" fill="#C0C0C0" mask="url(#mask-2)"></path>
                <path d="M343.000609,230 C341.343419,230 340,231.343312 340,232.994202 L340,247.005798 C340,248.65945 341.335151,250 343.000609,250 L496.999391,250 C498.656581,250 500,248.656688 500,247.005798 L500,232.994202 C500,231.34055 498.664849,230 496.999391,230 L343.000609,230 Z M343.000609,230" id="Rectangle 16 copy 4" fill="#C0C0C0" mask="url(#mask-2)"></path>
                <path d="M123.004704,140 C121.345252,140 120,141.343312 120,142.994202 L120,157.005798 C120,158.65945 121.343635,160 123.004704,160 L286.995296,160 C288.654748,160 290,158.656688 290,157.005798 L290,142.994202 C290,141.34055 288.656365,140 286.995296,140 L123.004704,140 Z M123.004704,140" id="Rectangle 16 copy 3" fill="#9B9B9B" mask="url(#mask-2)"></path>
                <path d="M122.992639,170 C121.33985,170 120,171.343312 120,172.994202 L120,187.005798 C120,188.65945 121.345375,190 122.992639,190 L297.007361,190 C298.66015,190 300,188.656688 300,187.005798 L300,172.994202 C300,171.34055 298.654625,170 297.007361,170 L122.992639,170 Z M122.992639,170" id="Rectangle 16 copy 4" fill="#9B9B9B" mask="url(#mask-2)"></path>
                <path d="M122.992639,200 C121.33985,200 120,201.343312 120,202.994202 L120,217.005798 C120,218.65945 121.345375,220 122.992639,220 L297.007361,220 C298.66015,220 300,218.656688 300,217.005798 L300,202.994202 C300,201.34055 298.654625,200 297.007361,200 L122.992639,200 Z M122.992639,200" id="Rectangle 16 copy 5" fill="#9B9B9B" mask="url(#mask-2)"></path>
                <path d="M123.004704,230 C121.345252,230 120,231.343312 120,232.994202 L120,247.005798 C120,248.65945 121.343635,250 123.004704,250 L286.995296,250 C288.654748,250 290,248.656688 290,247.005798 L290,232.994202 C290,231.34055 288.656365,230 286.995296,230 L123.004704,230 Z M123.004704,230" id="Rectangle 16 copy 6" fill="#9B9B9B" mask="url(#mask-2)"></path>
                <path d="M262.996247,310 C261.341466,310 260,311.342309 260,313.006501 L260,346.993499 C260,348.653944 261.347656,350 262.996247,350 L377.003753,350 C378.658534,350 380,348.657691 380,346.993499 L380,313.006501 C380,311.346056 378.652344,310 377.003753,310 L262.996247,310 Z M262.996247,310" id="Rectangle 25" fill="#34E0C2" mask="url(#mask-2)"></path>
                <path d="M292.995937,324 C291.341327,324 290,325.341623 290,326.997152 L290,333.002848 C290,334.658129 291.33731,336 292.995937,336 L347.004063,336 C348.658673,336 350,334.658377 350,333.002848 L350,326.997152 C350,325.341871 348.66269,324 347.004063,324 L292.995937,324 Z M292.995937,324" id="Rectangle 25 copy" fill="#D3F7F0" mask="url(#mask-2)"></path>
            </g>
            <path d="M24.000366,0 C10.7453299,0 0,10.7472995 0,24.0001747 L0,475.999825 C0,489.254756 10.7393589,500 24.0001532,500 L240,500 L585,0 L24.000366,0 Z M24.000366,0" id="Rectangle 2 copy 2" fill-opacity="0.2" fill="#FFFFFF"></path>
        </g>
        <g id="Tablet" transform="translate(200.000000, 249.000000)">
            <path d="M25.0067043,1 C11.7481676,1 1,11.7509621 1,24.9939989 L1,397.006001 C1,410.257521 11.7527759,421 25.0067043,421 L315.993296,421 C329.251832,421 340,410.249038 340,397.006001 L340,24.9939989 C340,11.7424792 329.247224,1 315.993296,1 L25.0067043,1 Z M25.0067043,1" id="Rectangle 2 copy" fill="#4A4A4A"></path>
            <path d="M47.9946719,41 C43.5793365,41 40,44.5883096 40,49.0070196 L40,372.99298 C40,377.415135 43.5764964,381 47.9946719,381 L292.005328,381 C296.420663,381 300,377.41169 300,372.99298 L300,49.0070196 C300,44.5848648 296.423504,41 292.005328,41 L47.9946719,41 Z M47.9946719,41" id="Rectangle 3 copy" stroke="#979797" fill="#EBEBEB"></path>
            <path d="M171,411 C176.522848,411 181,406.522848 181,401 C181,395.477152 176.522848,391 171,391 C165.477152,391 161,395.477152 161,401 C161,406.522848 165.477152,411 171,411 Z M171,411" id="Oval 1 copy" fill="#747474"></path>
            <path d="M62.9900874,71 C61.3387077,71 60,72.343312 60,73.9942021 L60,88.0057979 C60,89.6594501 61.3383447,91 62.9900874,91 L137.009913,91 C138.661292,91 140,89.656688 140,88.0057979 L140,73.9942021 C140,72.3405499 138.661655,71 137.009913,71 L62.9900874,71 Z M62.9900874,71" id="Rectangle 16" fill="#34E0C2"></path>
            <path d="M202.990087,71 C201.338708,71 200,72.343312 200,73.9942021 L200,88.0057979 C200,89.6594501 201.338345,91 202.990087,91 L277.009913,91 C278.661292,91 280,89.656688 280,88.0057979 L280,73.9942021 C280,72.3405499 278.661655,71 277.009913,71 L202.990087,71 Z M202.990087,71" id="Rectangle 16 copy" fill="#9B9B9B"></path>
            <path d="M162.996247,111 C161.341466,111 160,112.343312 160,113.994202 L160,128.005798 C160,129.65945 161.347656,131 162.996247,131 L277.003753,131 C278.658534,131 280,129.656688 280,128.005798 L280,113.994202 C280,112.34055 278.652344,111 277.003753,111 L162.996247,111 Z M162.996247,111" id="Rectangle 16 copy 2" fill="#9B9B9B"></path>
            <path d="M63.9900874,111 C62.3387077,111 61,112.338345 61,113.990087 L61,188.009913 C61,189.661292 62.3383447,191 63.9900874,191 L138.009913,191 C139.661292,191 141,189.661655 141,188.009913 L141,113.990087 C141,112.338708 139.661655,111 138.009913,111 L63.9900874,111 Z M63.9900874,111" id="Rectangle 16 copy 3" fill="#C0C0C0"></path>
            <path d="M162.999283,141 C161.342825,141 160,142.343312 160,143.994202 L160,158.005798 C160,159.65945 161.351121,161 162.999283,161 L267.000717,161 C268.657175,161 270,159.656688 270,158.005798 L270,143.994202 C270,142.34055 268.648879,141 267.000717,141 L162.999283,141 Z M162.999283,141" id="Rectangle 16 copy 3" fill="#9B9B9B"></path>
            <path d="M162.992801,171 C161.339923,171 160,172.343312 160,173.994202 L160,188.005798 C160,189.65945 161.338013,191 162.992801,191 L257.007199,191 C258.660077,191 260,189.656688 260,188.005798 L260,173.994202 C260,172.34055 258.661987,171 257.007199,171 L162.992801,171 Z M162.992801,171" id="Rectangle 16 copy 4" fill="#9B9B9B"></path>
            <path d="M63.0089721,211 C61.3471627,211 60,212.343312 60,213.994202 L60,228.005798 C60,229.65945 61.3410187,231 63.0089721,231 L266.991028,231 C268.652837,231 270,229.656688 270,228.005798 L270,213.994202 C270,212.34055 268.658981,211 266.991028,211 L63.0089721,211 Z M63.0089721,211" id="Rectangle 16 copy 5" fill="#9B9B9B"></path>
            <path d="M63.0055048,241 C61.3456103,241 60,242.343312 60,243.994202 L60,258.005798 C60,259.65945 61.3478551,261 63.0055048,261 L276.994495,261 C278.65439,261 280,259.656688 280,258.005798 L280,243.994202 C280,242.34055 278.652145,241 276.994495,241 L63.0055048,241 Z M63.0055048,241" id="Rectangle 16 copy 6" fill="#9B9B9B"></path>
            <path d="M73.0021068,271 C71.344089,271 70,272.343312 70,273.994202 L70,288.005798 C70,289.65945 71.3434161,291 73.0021068,291 L266.997893,291 C268.655911,291 270,289.656688 270,288.005798 L270,273.994202 C270,272.34055 268.656584,271 266.997893,271 L73.0021068,271 Z M73.0021068,271" id="Rectangle 16 copy 7" fill="#9B9B9B"></path>
            <path d="M112.996247,317 C111.341466,317 110,318.342309 110,320.006501 L110,353.993499 C110,355.653944 111.347656,357 112.996247,357 L227.003753,357 C228.658534,357 230,355.657691 230,353.993499 L230,320.006501 C230,318.346056 228.652344,317 227.003753,317 L112.996247,317 Z M112.996247,317" id="Rectangle 25" fill="#34E0C2"></path>
            <path d="M142.995937,331 C141.341327,331 140,332.341623 140,333.997152 L140,340.002848 C140,341.658129 141.33731,343 142.995937,343 L197.004063,343 C198.658673,343 200,341.658377 200,340.002848 L200,333.997152 C200,332.341871 198.66269,331 197.004063,331 L142.995937,331 Z M142.995937,331" id="Rectangle 25 copy" fill="#D3F7F0"></path>
            <path d="M25.0067043,1 C11.7481676,1 1,11.7509621 1,24.9939989 L1,397.006001 C1,410.257521 11.744405,421 25.0001214,421 L91,421 L327.758175,21.6488616 C334.519148,10.2448102 329.247224,1 315.993296,1 L25.0067043,1 Z M25.0067043,1" id="Rectangle 2 copy 2" fill-opacity="0.10239545" fill="#FFFFFF"></path>
        </g>
        <g id="Phone" transform="translate(101.000000, 370.000000)">
            <path d="M23.9956488,0 C10.7432179,0 0,10.7434658 0,23.995825 L0,276.004175 C0,289.256703 10.7541197,300 23.9956488,300 L156.004351,300 C169.256782,300 180,289.256534 180,276.004175 L180,23.995825 C180,10.7432968 169.24588,0 156.004351,0 L23.9956488,0 Z M23.9956488,0" id="Rectangle 2" fill="#4A4A4A"></path>
            <path d="M28.0043643,40 C23.5836759,40 20,43.5897371 20,47.992532 L20,252.007468 C20,256.421622 23.583654,260 28.0043643,260 L151.995636,260 C156.416324,260 160,256.410263 160,252.007468 L160,47.992532 C160,43.5783785 156.416346,40 151.995636,40 L28.0043643,40 Z M28.0043643,40" id="Rectangle 3" stroke="#979797" fill="#EBEBEB"></path>
            <path d="M90,290 C95.5228478,290 100,285.522848 100,280 C100,274.477152 95.5228478,270 90,270 C84.4771522,270 80,274.477152 80,280 C80,285.522848 84.4771522,290 90,290 Z M90,290" id="Oval 1" fill="#747474"></path>
            <path d="M41.9959374,60 C40.3413269,60 39,61.343312 39,62.9942021 L39,77.0057979 C39,78.6594501 40.3373097,80 41.9959374,80 L96.0040626,80 C97.6586731,80 99,78.656688 99,77.0057979 L99,62.9942021 C99,61.3405499 97.6626903,60 96.0040626,60 L41.9959374,60 Z M41.9959374,60" id="Rectangle 16" fill="#34E0C2"></path>
            <path d="M121.994202,60 C120.34055,60 119,61.343312 119,62.9942021 L119,77.0057979 C119,78.6594501 120.343312,80 121.994202,80 L136.005798,80 C137.65945,80 139,78.656688 139,77.0057979 L139,62.9942021 C139,61.3405499 137.656688,60 136.005798,60 L121.994202,60 Z M121.994202,60" id="Rectangle 16 copy" fill="#9B9B9B"></path>
            <path d="M41.9928014,160 C40.3399228,160 39,161.343312 39,162.994202 L39,177.005798 C39,178.65945 40.3380125,180 41.9928014,180 L136.007199,180 C137.660077,180 139,178.656688 139,177.005798 L139,162.994202 C139,161.34055 137.661987,160 136.007199,160 L41.9928014,160 Z M41.9928014,160" id="Rectangle 16 copy 2" fill="#9B9B9B"></path>
            <path d="M42.9928014,100 C41.3399228,100 40,101.337379 40,102.996532 L40,147.003468 C40,148.658407 41.3380125,150 42.9928014,150 L137.007199,150 C138.660077,150 140,148.662621 140,147.003468 L140,102.996532 C140,101.341593 138.661987,100 137.007199,100 L42.9928014,100 Z M42.9928014,100" id="Rectangle 16 copy 3" fill="#C0C0C0"></path>
            <path d="M41.9944611,190 C40.3406659,190 39,191.343312 39,192.994202 L39,207.005798 C39,208.65945 40.3420956,210 41.9944611,210 L126.005539,210 C127.659334,210 129,208.656688 129,207.005798 L129,192.994202 C129,191.34055 127.657904,190 126.005539,190 L41.9944611,190 Z M41.9944611,190" id="Rectangle 16 copy 3" fill="#9B9B9B"></path>
            <path d="M41.9944611,220 C40.3406659,220 39,221.343312 39,222.994202 L39,237.005798 C39,238.65945 40.3420956,240 41.9944611,240 L126.005539,240 C127.659334,240 129,238.656688 129,237.005798 L129,222.994202 C129,221.34055 127.657904,220 126.005539,220 L41.9944611,220 Z M41.9944611,220" id="Rectangle 16 copy 4" fill="#9B9B9B"></path>
            <path d="M41.9928014,220 C40.3399228,220 39,221.343312 39,222.994202 L39,237.005798 C39,238.65945 40.3380125,240 41.9928014,240 L136.007199,240 C137.660077,240 139,238.656688 139,237.005798 L139,222.994202 C139,221.34055 137.661987,220 136.007199,220 L41.9928014,220 Z M41.9928014,220" id="Rectangle 16 copy 5" fill="#9B9B9B"></path>
            <path d="M23.9956488,0 C10.7432179,0 0,10.7434658 0,23.995825 L0,276.004175 C0,289.256703 10.7455661,300 24.0041096,300 L40,300 L169.847017,21.756392 C175.454355,9.74066849 169.24588,0 156.004351,0 L23.9956488,0 Z M23.9956488,0" id="Rectangle 2 copy" fill-opacity="0.0974839154" fill="#FFFFFF"></path>
        </g>
        <g id="Ruler" transform="translate(100.000000, 796.000000)">
            <path d="M3.00319787,4 C1.34457748,4 0,5.33801252 0,6.99280137 L0,101.007199 C0,102.660077 1.33427771,104 3.00319787,104 L996.996802,104 C998.655423,104 1000,102.661987 1000,101.007199 L1000,6.99280137 C1000,5.33992281 998.665722,4 996.996802,4 L3.00319787,4 Z M3.00319787,4" id="Rectangle 27 copy" fill="#D0AF79"></path>
            <use id="Rectangle 27" xlink:href="#path-3" fill="#FBD28D"></use>
            <path d="M19.0003297,-10 C17.3432934,-10 16,-8.66416335 16,-6.9921875 L16,56.9921875 C16,58.6533565 17.3486445,60 19.0003297,60 L22.9996703,60 C24.6567066,60 26,58.6641634 26,56.9921875 L26,-6.9921875 C26,-8.65335647 24.6513555,-10 22.9996703,-10 L19.0003297,-10 Z M19.0003297,-10" id="Rectangle 28" fill-opacity="0.603601792" fill="#A0804C" mask="url(#mask-4)"></path>
            <path d="M39.0003297,-30 C37.3432934,-30 36,-28.6641634 36,-26.9921875 L36,36.9921875 C36,38.6533565 37.3486445,40 39.0003297,40 L42.9996703,40 C44.6567066,40 46,38.6641634 46,36.9921875 L46,-26.9921875 C46,-28.6533565 44.6513555,-30 42.9996703,-30 L39.0003297,-30 Z M39.0003297,-30" id="Rectangle 28 copy" fill-opacity="0.603601792" fill="#A0804C" mask="url(#mask-4)"></path>
            <path d="M59.0003297,-30 C57.3432934,-30 56,-28.6641634 56,-26.9921875 L56,36.9921875 C56,38.6533565 57.3486445,40 59.0003297,40 L62.9996703,40 C64.6567066,40 66,38.6641634 66,36.9921875 L66,-26.9921875 C66,-28.6533565 64.6513555,-30 62.9996703,-30 L59.0003297,-30 Z M59.0003297,-30" id="Rectangle 28 copy 2" fill-opacity="0.603601792" fill="#A0804C" mask="url(#mask-4)"></path>
            <path d="M79.0003297,-30 C77.3432934,-30 76,-28.6641634 76,-26.9921875 L76,36.9921875 C76,38.6533565 77.3486445,40 79.0003297,40 L82.9996703,40 C84.6567066,40 86,38.6641634 86,36.9921875 L86,-26.9921875 C86,-28.6533565 84.6513555,-30 82.9996703,-30 L79.0003297,-30 Z M79.0003297,-30" id="Rectangle 28 copy 3" fill-opacity="0.603601792" fill="#A0804C" mask="url(#mask-4)"></path>
            <path d="M99.0003297,-20 C97.3432934,-20 96,-18.6641634 96,-16.9921875 L96,46.9921875 C96,48.6533565 97.3486445,50 99.0003297,50 L102.99967,50 C104.656707,50 106,48.6641634 106,46.9921875 L106,-16.9921875 C106,-18.6533565 104.651356,-20 102.99967,-20 L99.0003297,-20 Z M99.0003297,-20" id="Rectangle 28 copy 4" fill-opacity="0.603601792" fill="#A0804C" mask="url(#mask-4)"></path>
            <path d="M119.00033,-30 C117.343293,-30 116,-28.6641634 116,-26.9921875 L116,36.9921875 C116,38.6533565 117.348644,40 119.00033,40 L122.99967,40 C124.656707,40 126,38.6641634 126,36.9921875 L126,-26.9921875 C126,-28.6533565 124.651356,-30 122.99967,-30 L119.00033,-30 Z M119.00033,-30" id="Rectangle 28 copy 5" fill-opacity="0.603601792" fill="#A0804C" mask="url(#mask-4)"></path>
            <path d="M139.00033,-30 C137.343293,-30 136,-28.6641634 136,-26.9921875 L136,36.9921875 C136,38.6533565 137.348644,40 139.00033,40 L142.99967,40 C144.656707,40 146,38.6641634 146,36.9921875 L146,-26.9921875 C146,-28.6533565 144.651356,-30 142.99967,-30 L139.00033,-30 Z M139.00033,-30" id="Rectangle 28 copy 6" fill-opacity="0.603601792" fill="#A0804C" mask="url(#mask-4)"></path>
            <path d="M159.00033,-30 C157.343293,-30 156,-28.6641634 156,-26.9921875 L156,36.9921875 C156,38.6533565 157.348644,40 159.00033,40 L162.99967,40 C164.656707,40 166,38.6641634 166,36.9921875 L166,-26.9921875 C166,-28.6533565 164.651356,-30 162.99967,-30 L159.00033,-30 Z M159.00033,-30" id="Rectangle 28 copy 7" fill-opacity="0.603601792" fill="#A0804C" mask="url(#mask-4)"></path>
            <path d="M179.00033,-10 C177.343293,-10 176,-8.66416335 176,-6.9921875 L176,56.9921875 C176,58.6533565 177.348644,60 179.00033,60 L182.99967,60 C184.656707,60 186,58.6641634 186,56.9921875 L186,-6.9921875 C186,-8.65335647 184.651356,-10 182.99967,-10 L179.00033,-10 Z M179.00033,-10" id="Rectangle 28 copy 8" fill-opacity="0.603601792" fill="#A0804C" mask="url(#mask-4)"></path>
            <path d="M199.00033,-30 C197.343293,-30 196,-28.6641634 196,-26.9921875 L196,36.9921875 C196,38.6533565 197.348644,40 199.00033,40 L202.99967,40 C204.656707,40 206,38.6641634 206,36.9921875 L206,-26.9921875 C206,-28.6533565 204.651356,-30 202.99967,-30 L199.00033,-30 Z M199.00033,-30" id="Rectangle 28 copy 9" fill-opacity="0.603601792" fill="#A0804C" mask="url(#mask-4)"></path>
            <path d="M219.00033,-30 C217.343293,-30 216,-28.6641634 216,-26.9921875 L216,36.9921875 C216,38.6533565 217.348644,40 219.00033,40 L222.99967,40 C224.656707,40 226,38.6641634 226,36.9921875 L226,-26.9921875 C226,-28.6533565 224.651356,-30 222.99967,-30 L219.00033,-30 Z M219.00033,-30" id="Rectangle 28 copy 10" fill-opacity="0.603601792" fill="#A0804C" mask="url(#mask-4)"></path>
            <path d="M239.00033,-30 C237.343293,-30 236,-28.6641634 236,-26.9921875 L236,36.9921875 C236,38.6533565 237.348644,40 239.00033,40 L242.99967,40 C244.656707,40 246,38.6641634 246,36.9921875 L246,-26.9921875 C246,-28.6533565 244.651356,-30 242.99967,-30 L239.00033,-30 Z M239.00033,-30" id="Rectangle 28 copy 11" fill-opacity="0.603601792" fill="#A0804C" mask="url(#mask-4)"></path>
            <path d="M259.00033,-20 C257.343293,-20 256,-18.6641634 256,-16.9921875 L256,46.9921875 C256,48.6533565 257.348644,50 259.00033,50 L262.99967,50 C264.656707,50 266,48.6641634 266,46.9921875 L266,-16.9921875 C266,-18.6533565 264.651356,-20 262.99967,-20 L259.00033,-20 Z M259.00033,-20" id="Rectangle 28 copy 12" fill-opacity="0.603601792" fill="#A0804C" mask="url(#mask-4)"></path>
            <path d="M279.00033,-30 C277.343293,-30 276,-28.6641634 276,-26.9921875 L276,36.9921875 C276,38.6533565 277.348644,40 279.00033,40 L282.99967,40 C284.656707,40 286,38.6641634 286,36.9921875 L286,-26.9921875 C286,-28.6533565 284.651356,-30 282.99967,-30 L279.00033,-30 Z M279.00033,-30" id="Rectangle 28 copy 13" fill-opacity="0.603601792" fill="#A0804C" mask="url(#mask-4)"></path>
            <path d="M299.00033,-30 C297.343293,-30 296,-28.6641634 296,-26.9921875 L296,36.9921875 C296,38.6533565 297.348644,40 299.00033,40 L302.99967,40 C304.656707,40 306,38.6641634 306,36.9921875 L306,-26.9921875 C306,-28.6533565 304.651356,-30 302.99967,-30 L299.00033,-30 Z M299.00033,-30" id="Rectangle 28 copy 14" fill-opacity="0.603601792" fill="#A0804C" mask="url(#mask-4)"></path>
            <path d="M319.00033,-30 C317.343293,-30 316,-28.6641634 316,-26.9921875 L316,36.9921875 C316,38.6533565 317.348644,40 319.00033,40 L322.99967,40 C324.656707,40 326,38.6641634 326,36.9921875 L326,-26.9921875 C326,-28.6533565 324.651356,-30 322.99967,-30 L319.00033,-30 Z M319.00033,-30" id="Rectangle 28 copy 15" fill-opacity="0.603601792" fill="#A0804C" mask="url(#mask-4)"></path>
            <path d="M339.00033,-10 C337.343293,-10 336,-8.66416335 336,-6.9921875 L336,56.9921875 C336,58.6533565 337.348644,60 339.00033,60 L342.99967,60 C344.656707,60 346,58.6641634 346,56.9921875 L346,-6.9921875 C346,-8.65335647 344.651356,-10 342.99967,-10 L339.00033,-10 Z M339.00033,-10" id="Rectangle 28 copy 16" fill-opacity="0.603601792" fill="#A0804C" mask="url(#mask-4)"></path>
            <path d="M359.00033,-30 C357.343293,-30 356,-28.6641634 356,-26.9921875 L356,36.9921875 C356,38.6533565 357.348644,40 359.00033,40 L362.99967,40 C364.656707,40 366,38.6641634 366,36.9921875 L366,-26.9921875 C366,-28.6533565 364.651356,-30 362.99967,-30 L359.00033,-30 Z M359.00033,-30" id="Rectangle 28 copy 10" fill-opacity="0.603601792" fill="#A0804C" mask="url(#mask-4)"></path>
            <path d="M379.00033,-30 C377.343293,-30 376,-28.6641634 376,-26.9921875 L376,36.9921875 C376,38.6533565 377.348644,40 379.00033,40 L382.99967,40 C384.656707,40 386,38.6641634 386,36.9921875 L386,-26.9921875 C386,-28.6533565 384.651356,-30 382.99967,-30 L379.00033,-30 Z M379.00033,-30" id="Rectangle 28 copy 11" fill-opacity="0.603601792" fill="#A0804C" mask="url(#mask-4)"></path>
            <path d="M399.00033,-30 C397.343293,-30 396,-28.6641634 396,-26.9921875 L396,36.9921875 C396,38.6533565 397.348644,40 399.00033,40 L402.99967,40 C404.656707,40 406,38.6641634 406,36.9921875 L406,-26.9921875 C406,-28.6533565 404.651356,-30 402.99967,-30 L399.00033,-30 Z M399.00033,-30" id="Rectangle 28 copy 12" fill-opacity="0.603601792" fill="#A0804C" mask="url(#mask-4)"></path>
            <path d="M419.00033,-20 C417.343293,-20 416,-18.6641634 416,-16.9921875 L416,46.9921875 C416,48.6533565 417.348644,50 419.00033,50 L422.99967,50 C424.656707,50 426,48.6641634 426,46.9921875 L426,-16.9921875 C426,-18.6533565 424.651356,-20 422.99967,-20 L419.00033,-20 Z M419.00033,-20" id="Rectangle 28 copy 13" fill-opacity="0.603601792" fill="#A0804C" mask="url(#mask-4)"></path>
            <path d="M439.00033,-30 C437.343293,-30 436,-28.6641634 436,-26.9921875 L436,36.9921875 C436,38.6533565 437.348644,40 439.00033,40 L442.99967,40 C444.656707,40 446,38.6641634 446,36.9921875 L446,-26.9921875 C446,-28.6533565 444.651356,-30 442.99967,-30 L439.00033,-30 Z M439.00033,-30" id="Rectangle 28 copy 14" fill-opacity="0.603601792" fill="#A0804C" mask="url(#mask-4)"></path>
            <path d="M459.00033,-30 C457.343293,-30 456,-28.6641634 456,-26.9921875 L456,36.9921875 C456,38.6533565 457.348644,40 459.00033,40 L462.99967,40 C464.656707,40 466,38.6641634 466,36.9921875 L466,-26.9921875 C466,-28.6533565 464.651356,-30 462.99967,-30 L459.00033,-30 Z M459.00033,-30" id="Rectangle 28 copy 15" fill-opacity="0.603601792" fill="#A0804C" mask="url(#mask-4)"></path>
            <path d="M479.00033,-30 C477.343293,-30 476,-28.6641634 476,-26.9921875 L476,36.9921875 C476,38.6533565 477.348644,40 479.00033,40 L482.99967,40 C484.656707,40 486,38.6641634 486,36.9921875 L486,-26.9921875 C486,-28.6533565 484.651356,-30 482.99967,-30 L479.00033,-30 Z M479.00033,-30" id="Rectangle 28 copy 16" fill-opacity="0.603601792" fill="#A0804C" mask="url(#mask-4)"></path>
            <path d="M499.00033,-10 C497.343293,-10 496,-8.66416335 496,-6.9921875 L496,56.9921875 C496,58.6533565 497.348644,60 499.00033,60 L502.99967,60 C504.656707,60 506,58.6641634 506,56.9921875 L506,-6.9921875 C506,-8.65335647 504.651356,-10 502.99967,-10 L499.00033,-10 Z M499.00033,-10" id="Rectangle 28 copy 17" fill-opacity="0.603601792" fill="#A0804C" mask="url(#mask-4)"></path>
            <path d="M519.00033,-30 C517.343293,-30 516,-28.6641634 516,-26.9921875 L516,36.9921875 C516,38.6533565 517.348644,40 519.00033,40 L522.99967,40 C524.656707,40 526,38.6641634 526,36.9921875 L526,-26.9921875 C526,-28.6533565 524.651356,-30 522.99967,-30 L519.00033,-30 Z M519.00033,-30" id="Rectangle 28 copy 11" fill-opacity="0.603601792" fill="#A0804C" mask="url(#mask-4)"></path>
            <path d="M539.00033,-30 C537.343293,-30 536,-28.6641634 536,-26.9921875 L536,36.9921875 C536,38.6533565 537.348644,40 539.00033,40 L542.99967,40 C544.656707,40 546,38.6641634 546,36.9921875 L546,-26.9921875 C546,-28.6533565 544.651356,-30 542.99967,-30 L539.00033,-30 Z M539.00033,-30" id="Rectangle 28 copy 12" fill-opacity="0.603601792" fill="#A0804C" mask="url(#mask-4)"></path>
            <path d="M559.00033,-30 C557.343293,-30 556,-28.6641634 556,-26.9921875 L556,36.9921875 C556,38.6533565 557.348644,40 559.00033,40 L562.99967,40 C564.656707,40 566,38.6641634 566,36.9921875 L566,-26.9921875 C566,-28.6533565 564.651356,-30 562.99967,-30 L559.00033,-30 Z M559.00033,-30" id="Rectangle 28 copy 13" fill-opacity="0.603601792" fill="#A0804C" mask="url(#mask-4)"></path>
            <path d="M579.00033,-20 C577.343293,-20 576,-18.6641634 576,-16.9921875 L576,46.9921875 C576,48.6533565 577.348644,50 579.00033,50 L582.99967,50 C584.656707,50 586,48.6641634 586,46.9921875 L586,-16.9921875 C586,-18.6533565 584.651356,-20 582.99967,-20 L579.00033,-20 Z M579.00033,-20" id="Rectangle 28 copy 14" fill-opacity="0.603601792" fill="#A0804C" mask="url(#mask-4)"></path>
            <path d="M599.00033,-30 C597.343293,-30 596,-28.6641634 596,-26.9921875 L596,36.9921875 C596,38.6533565 597.348644,40 599.00033,40 L602.99967,40 C604.656707,40 606,38.6641634 606,36.9921875 L606,-26.9921875 C606,-28.6533565 604.651356,-30 602.99967,-30 L599.00033,-30 Z M599.00033,-30" id="Rectangle 28 copy 15" fill-opacity="0.603601792" fill="#A0804C" mask="url(#mask-4)"></path>
            <path d="M619.00033,-30 C617.343293,-30 616,-28.6641634 616,-26.9921875 L616,36.9921875 C616,38.6533565 617.348644,40 619.00033,40 L622.99967,40 C624.656707,40 626,38.6641634 626,36.9921875 L626,-26.9921875 C626,-28.6533565 624.651356,-30 622.99967,-30 L619.00033,-30 Z M619.00033,-30" id="Rectangle 28 copy 16" fill-opacity="0.603601792" fill="#A0804C" mask="url(#mask-4)"></path>
            <path d="M639.00033,-30 C637.343293,-30 636,-28.6641634 636,-26.9921875 L636,36.9921875 C636,38.6533565 637.348644,40 639.00033,40 L642.99967,40 C644.656707,40 646,38.6641634 646,36.9921875 L646,-26.9921875 C646,-28.6533565 644.651356,-30 642.99967,-30 L639.00033,-30 Z M639.00033,-30" id="Rectangle 28 copy 17" fill-opacity="0.603601792" fill="#A0804C" mask="url(#mask-4)"></path>
            <path d="M659.00033,-10 C657.343293,-10 656,-8.66416335 656,-6.9921875 L656,56.9921875 C656,58.6533565 657.348644,60 659.00033,60 L662.99967,60 C664.656707,60 666,58.6641634 666,56.9921875 L666,-6.9921875 C666,-8.65335647 664.651356,-10 662.99967,-10 L659.00033,-10 Z M659.00033,-10" id="Rectangle 28 copy 18" fill-opacity="0.603601792" fill="#A0804C" mask="url(#mask-4)"></path>
            <path d="M679.00033,-30 C677.343293,-30 676,-28.6641634 676,-26.9921875 L676,36.9921875 C676,38.6533565 677.348644,40 679.00033,40 L682.99967,40 C684.656707,40 686,38.6641634 686,36.9921875 L686,-26.9921875 C686,-28.6533565 684.651356,-30 682.99967,-30 L679.00033,-30 Z M679.00033,-30" id="Rectangle 28 copy 12" fill-opacity="0.603601792" fill="#A0804C" mask="url(#mask-4)"></path>
            <path d="M699.00033,-30 C697.343293,-30 696,-28.6641634 696,-26.9921875 L696,36.9921875 C696,38.6533565 697.348644,40 699.00033,40 L702.99967,40 C704.656707,40 706,38.6641634 706,36.9921875 L706,-26.9921875 C706,-28.6533565 704.651356,-30 702.99967,-30 L699.00033,-30 Z M699.00033,-30" id="Rectangle 28 copy 13" fill-opacity="0.603601792" fill="#A0804C" mask="url(#mask-4)"></path>
            <path d="M719.00033,-30 C717.343293,-30 716,-28.6641634 716,-26.9921875 L716,36.9921875 C716,38.6533565 717.348644,40 719.00033,40 L722.99967,40 C724.656707,40 726,38.6641634 726,36.9921875 L726,-26.9921875 C726,-28.6533565 724.651356,-30 722.99967,-30 L719.00033,-30 Z M719.00033,-30" id="Rectangle 28 copy 14" fill-opacity="0.603601792" fill="#A0804C" mask="url(#mask-4)"></path>
            <path d="M739.00033,-20 C737.343293,-20 736,-18.6641634 736,-16.9921875 L736,46.9921875 C736,48.6533565 737.348644,50 739.00033,50 L742.99967,50 C744.656707,50 746,48.6641634 746,46.9921875 L746,-16.9921875 C746,-18.6533565 744.651356,-20 742.99967,-20 L739.00033,-20 Z M739.00033,-20" id="Rectangle 28 copy 15" fill-opacity="0.603601792" fill="#A0804C" mask="url(#mask-4)"></path>
            <path d="M759.00033,-30 C757.343293,-30 756,-28.6641634 756,-26.9921875 L756,36.9921875 C756,38.6533565 757.348644,40 759.00033,40 L762.99967,40 C764.656707,40 766,38.6641634 766,36.9921875 L766,-26.9921875 C766,-28.6533565 764.651356,-30 762.99967,-30 L759.00033,-30 Z M759.00033,-30" id="Rectangle 28 copy 16" fill-opacity="0.603601792" fill="#A0804C" mask="url(#mask-4)"></path>
            <path d="M779.00033,-30 C777.343293,-30 776,-28.6641634 776,-26.9921875 L776,36.9921875 C776,38.6533565 777.348644,40 779.00033,40 L782.99967,40 C784.656707,40 786,38.6641634 786,36.9921875 L786,-26.9921875 C786,-28.6533565 784.651356,-30 782.99967,-30 L779.00033,-30 Z M779.00033,-30" id="Rectangle 28 copy 17" fill-opacity="0.603601792" fill="#A0804C" mask="url(#mask-4)"></path>
            <path d="M799.00033,-30 C797.343293,-30 796,-28.6641634 796,-26.9921875 L796,36.9921875 C796,38.6533565 797.348644,40 799.00033,40 L802.99967,40 C804.656707,40 806,38.6641634 806,36.9921875 L806,-26.9921875 C806,-28.6533565 804.651356,-30 802.99967,-30 L799.00033,-30 Z M799.00033,-30" id="Rectangle 28 copy 18" fill-opacity="0.603601792" fill="#A0804C" mask="url(#mask-4)"></path>
            <path d="M819.00033,-10 C817.343293,-10 816,-8.66416335 816,-6.9921875 L816,56.9921875 C816,58.6533565 817.348644,60 819.00033,60 L822.99967,60 C824.656707,60 826,58.6641634 826,56.9921875 L826,-6.9921875 C826,-8.65335647 824.651356,-10 822.99967,-10 L819.00033,-10 Z M819.00033,-10" id="Rectangle 28 copy 19" fill-opacity="0.603601792" fill="#A0804C" mask="url(#mask-4)"></path>
            <path d="M839.00033,-30 C837.343293,-30 836,-28.6641634 836,-26.9921875 L836,36.9921875 C836,38.6533565 837.348644,40 839.00033,40 L842.99967,40 C844.656707,40 846,38.6641634 846,36.9921875 L846,-26.9921875 C846,-28.6533565 844.651356,-30 842.99967,-30 L839.00033,-30 Z M839.00033,-30" id="Rectangle 28 copy 13" fill-opacity="0.603601792" fill="#A0804C" mask="url(#mask-4)"></path>
            <path d="M859.00033,-30 C857.343293,-30 856,-28.6641634 856,-26.9921875 L856,36.9921875 C856,38.6533565 857.348644,40 859.00033,40 L862.99967,40 C864.656707,40 866,38.6641634 866,36.9921875 L866,-26.9921875 C866,-28.6533565 864.651356,-30 862.99967,-30 L859.00033,-30 Z M859.00033,-30" id="Rectangle 28 copy 14" fill-opacity="0.603601792" fill="#A0804C" mask="url(#mask-4)"></path>
            <path d="M879.00033,-30 C877.343293,-30 876,-28.6641634 876,-26.9921875 L876,36.9921875 C876,38.6533565 877.348644,40 879.00033,40 L882.99967,40 C884.656707,40 886,38.6641634 886,36.9921875 L886,-26.9921875 C886,-28.6533565 884.651356,-30 882.99967,-30 L879.00033,-30 Z M879.00033,-30" id="Rectangle 28 copy 15" fill-opacity="0.603601792" fill="#A0804C" mask="url(#mask-4)"></path>
            <path d="M899.00033,-20 C897.343293,-20 896,-18.6641634 896,-16.9921875 L896,46.9921875 C896,48.6533565 897.348644,50 899.00033,50 L902.99967,50 C904.656707,50 906,48.6641634 906,46.9921875 L906,-16.9921875 C906,-18.6533565 904.651356,-20 902.99967,-20 L899.00033,-20 Z M899.00033,-20" id="Rectangle 28 copy 16" fill-opacity="0.603601792" fill="#A0804C" mask="url(#mask-4)"></path>
            <path d="M919.00033,-30 C917.343293,-30 916,-28.6641634 916,-26.9921875 L916,36.9921875 C916,38.6533565 917.348644,40 919.00033,40 L922.99967,40 C924.656707,40 926,38.6641634 926,36.9921875 L926,-26.9921875 C926,-28.6533565 924.651356,-30 922.99967,-30 L919.00033,-30 Z M919.00033,-30" id="Rectangle 28 copy 17" fill-opacity="0.603601792" fill="#A0804C" mask="url(#mask-4)"></path>
            <path d="M939.00033,-30 C937.343293,-30 936,-28.6641634 936,-26.9921875 L936,36.9921875 C936,38.6533565 937.348644,40 939.00033,40 L942.99967,40 C944.656707,40 946,38.6641634 946,36.9921875 L946,-26.9921875 C946,-28.6533565 944.651356,-30 942.99967,-30 L939.00033,-30 Z M939.00033,-30" id="Rectangle 28 copy 18" fill-opacity="0.603601792" fill="#A0804C" mask="url(#mask-4)"></path>
            <path d="M959.00033,-30 C957.343293,-30 956,-28.6641634 956,-26.9921875 L956,36.9921875 C956,38.6533565 957.348644,40 959.00033,40 L962.99967,40 C964.656707,40 966,38.6641634 966,36.9921875 L966,-26.9921875 C966,-28.6533565 964.651356,-30 962.99967,-30 L959.00033,-30 Z M959.00033,-30" id="Rectangle 28 copy 19" fill-opacity="0.603601792" fill="#A0804C" mask="url(#mask-4)"></path>
            <path d="M979.00033,-10 C977.343293,-10 976,-8.66416335 976,-6.9921875 L976,56.9921875 C976,58.6533565 977.348644,60 979.00033,60 L982.99967,60 C984.656707,60 986,58.6641634 986,56.9921875 L986,-6.9921875 C986,-8.65335647 984.651356,-10 982.99967,-10 L979.00033,-10 Z M979.00033,-10" id="Rectangle 28 copy 20" fill-opacity="0.603601792" fill="#A0804C" mask="url(#mask-4)"></path>
        </g>
        <g id="Measure lines" transform="translate(120.000000, 714.000000)" stroke="#C0C0C0" stroke-width="4" stroke-linecap="square">
            <path d="M0.5,2 L141,2" id="Line"></path>
            <path id="Line decoration-1" d="M0.5,-1 C0.5,1.1 0.5,2.9 0.5,5"></path>
            <path id="Line decoration-2" d="M140.5,-1 C140.5,1.1 140.5,2.9 140.5,5"></path>
            <path d="M120.5,22 L381,22" id="Line copy"></path>
            <path id="Line copy decoration-1" d="M120.5,19 C120.5,21.1 120.5,22.9 120.5,25"></path>
            <path id="Line copy decoration-2" d="M380.5,19 C380.5,21.1 380.5,22.9 380.5,25"></path>
            <path d="M320.5,42 L941,42" id="Line copy 2"></path>
            <path id="Line copy 2 decoration-1" d="M320.5,39 C320.5,41.1 320.5,42.9 320.5,45"></path>
            <path id="Line copy 2 decoration-2" d="M940.5,39 C940.5,41.1 940.5,42.9 940.5,45"></path>
        </g>
    </g>
</svg>